<svg width="137" height="57" xmlns="http://www.w3.org/2000/svg" xmlns:xlink="http://www.w3.org/1999/xlink">
  <defs>
    <path d="M146.706 106.997L134.54 107l-7.806-11.776v11.535H112V77.456c0-3.99 3.3-7.226 7.368-7.226 4.069 0 7.366 3.236 7.366 7.226v7.798l6.67-11.696c2.068-3.44 6.583-4.582 10.09-2.556 3.503 2.028 4.667 6.459 2.601 9.895l-5.586 9.948 7.583 11.43c1.766 2.6.77 4.722-1.386 4.722zm-56.163-8.471c1.325-.003 2.453-.933 3.33-2.5.639-1.178 1.085-2.612 1.275-4.254H110c-.437 4.52-2.517 8.621-5.637 11.642-.008.007-.02.014-.028.024h.028c-3.515 3.424-8.448 5.564-13.82 5.562-5.373.002-10.305-2.138-13.82-5.562h.027c-.008-.01-.018-.017-.028-.024C73.2 99.998 70.994 95.208 71 89.988c-.006-5.22 2.199-10.013 5.722-13.427 3.516-3.423 8.448-5.563 13.82-5.561 5.373-.002 10.306 2.138 13.821 5.56 3.12 3.022 5.2 7.122 5.637 11.642H95.148c-.19-1.642-.636-3.075-1.274-4.253-.878-1.566-2.006-2.493-3.331-2.502-1.32.01-2.452.936-3.328 2.502-.864 1.588-1.375 3.637-1.377 6.04.002 2.4.513 4.45 1.377 6.037.876 1.567 2.005 2.497 3.328 2.5zM64.889 67.512c-2.948 2.967-3.157 3.755-.352 6.575l1.609 1.614a7.323 7.323 0 012.13 5.172V107H53.728V80.873a7.31 7.31 0 012.13-5.172s1.608-1.617 1.605-1.617c2.807-2.818 2.597-3.605-.353-6.572l-1.766-1.778A8.033 8.033 0 0153 60.046c0-2.222.895-4.234 2.345-5.69A7.951 7.951 0 0161 52c2.209 0 4.21.9 5.657 2.355A8.048 8.048 0 0169 60.046a8.04 8.04 0 01-2.342 5.688l-1.769 1.778zM36.196 89.584c-.003-2.112-.513-3.915-1.376-5.31-.873-1.38-2-2.193-3.32-2.2-1.32.007-2.447.82-3.32 2.2-.861 1.395-1.372 3.198-1.379 5.31v9.607l.004 7.809H12V89.283c-.006-5.302 2.194-10.168 5.71-13.636A19.592 19.592 0 0131.5 70a19.589 19.589 0 0113.79 5.647A19.153 19.153 0 0151 89.283V107H36.196V89.584z" id="a"/>
  </defs>
  <use fill="#FF6700" xlink:href="#a" transform="translate(-12 -52)" fill-rule="evenodd"/>
</svg>
